# xmcd CD database file
#
# Track frame offsets:
#	150
#	21550
#	40465
#	61862
#
# Disc length: 1071 seconds
#
# Revision: 1
# Processed by: cddbd v1.5.2PL0 Copyright (c) Steve Scherf et al.
# Submitted via: CDex 1.70beta3
#
DISCID=32042d04
DTITLE=藤井フミヤ - DO NOT
DYEAR=1997
DGENRE=JPop
TTITLE0=DO NOT
TTITLE1=MY TYPE
TTITLE2=DO NOT (instrumental)
TTITLE3=MY TYPE (instrumental)
EXTD=YEAR: 1997
EXTT0=
EXTT1=
EXTT2=
EXTT3=
PLAYORDER=
